:SAMPLES-PER-SECOND 30
:FULLY-SPECIFIED
:DEGREES
81
root  -23.1059998 38.96844518 36.14333446 0.05581614375 3.452299595 0.6390641928
lowerback  8.232509613 0.2334019989 -5.320439816
upperback  1.386839986 -0.1446709931 0.2959519923
thorax  -3.163439989 -0.01493860036 3.316600084
lowerneck  -15.27820015 3.585200071 -4.373020172
upperneck  26.31710052 5.525139332 2.902139664
head  10.7791996 2.449359894 2.533230066
lclavicle  0 -5.34481991e-014 2.981770104e-014
lhumerus  -18.54879951 4.376560211 84.44950104
lradius  0.003583191894 6.643666666e-007 30.50089836
lwrist  -1.645157397e-007 -3.533851896e-007 -2.403120279
lhand  -5.505032044e-031 -15.8135004 33.60620117
lfingers  90 7.125020027 -90
lthumb  93.41605384 18.01962653 79.07819387
rclavicle  0 -5.34481991e-014 2.981770104e-014
rhumerus  -39.35300064 -21.15270042 -71.36360168
rradius  -1.296506525e-006 2.359789448e-007 37.45149994
rwrist  -2.281664457e-008 -8.593936229e-009 16.25830078
rhand  -1.345748685e-031 10.2737999 9.996669769
rfingers  -90 -7.125020027 -90
rthumb  -72.52445805 -22.91766803 -51.04506765
rfemur  -29.852108 -3.344050407 19.35240173
rtibia  9.670418422e-007 1.119611625e-006 52.18420792
rfoot  2.556521167e-006 -14.05360126 0.5131064057
rtoes  2.336001174 19.8686595 -96.84438506
lfemur  -8.455786705 -1.882260561 -23.7368927
ltibia  -3.641206786e-005 2.004581745e-007 25.22753143
lfoot  -5.693161143e-007 -14.67361164 -5.634492397
ltoes  -5.298979543 -19.31302686 -105.6655569
82
root  -23.10288947 38.95266676 36.33400023 0.11334683 3.418638229 0.8338630795
lowerback  8.139800072 0.184442997 -5.484020233
upperback  1.452810049 -0.2173729986 0.2660459876
thorax  -3.035409927 -0.05443260074 3.384639978
lowerneck  -15.37909985 3.638950109 -4.367710114
upperneck  26.34569931 5.566889763 3.035049915
head  10.80230045 2.484179974 2.589189768
lclavicle  0 -5.34481991e-014 2.981770104e-014
lhumerus  -18.10449982 3.921350002 84.53710175
lradius  0.003583191894 6.643666666e-007 30.65439987
lwrist  -1.645157397e-007 -3.533851896e-007 -2.195000172
lhand  -5.505032044e-031 -15.8135004 33.60620117
lfingers  90 7.125020027 -90
lthumb  93.41605384 18.01962653 79.07819387
rclavicle  0 -5.34481991e-014 2.981770104e-014
rhumerus  -39.19070053 -21.28440094 -71.41020203
rradius  -1.296506525e-006 2.359789448e-007 37.09500122
rwrist  -2.281664457e-008 -8.593936229e-009 16.37509918
rhand  -1.345748685e-031 10.2737999 9.996669769
rfingers  -90 -7.125020027 -90
rthumb  -72.52445805 -22.91766803 -51.04506765
rfemur  -30.40220451 -3.252220154 19.17620087
rtibia  9.670418422e-007 1.119611625e-006 51.42650986
rfoot  2.556521167e-006 -13.62570572 0.1987039745
rtoes  2.336001174 19.8686595 -96.84438506
lfemur  -8.170213699 -1.809190512 -23.96919632
ltibia  -3.641206786e-005 2.004581745e-007 25.13672638
lfoot  -5.693161143e-007 -14.862813 -5.553652287
ltoes  -5.298979543 -19.31302686 -105.6655569
83
root  -23.09444458 38.91933471 36.53555442 0.1887021661 3.317681551 1.088050008
lowerback  7.923140049 0.1427379996 -5.694200039
upperback  1.564090014 -0.2730920017 0.2782169878
thorax  -2.792010069 -0.08959460258 3.519680023
lowerneck  -15.48139954 3.692189932 -4.534329891
upperneck  26.35759926 5.661499977 3.145750046
head  10.81270027 2.52380991 2.672120094
lclavicle  0 -5.34481991e-014 2.981770104e-014
lhumerus  -17.58930016 3.607019901 84.68859863
lradius  0.003583191894 6.643666666e-007 30.86759949
lwrist  -1.645157397e-007 -3.533851896e-007 -2.029360056
lhand  -5.505032044e-031 -15.8135004 33.60620117
lfingers  90 7.125020027 -90
lthumb  93.41605384 18.01962653 79.07819387
rclavicle  0 -5.34481991e-014 2.981770104e-014
rhumerus  -38.99229813 -21.5053997 -71.32800293
rradius  -1.296506525e-006 2.359789448e-007 36.8512001
rwrist  -2.281664457e-008 -8.593936229e-009 16.73040009
rhand  -1.345748685e-031 10.2737999 9.996669769
rfingers  -90 -7.125020027 -90
rthumb  -72.52445805 -22.91766803 -51.04506765
rfemur  -30.914608 -3.250789642 18.9423027
rtibia  9.670418422e-007 1.119611625e-006 50.67631149
rfoot  2.556521167e-006 -13.41820335 0.06002917886
rtoes  2.336001174 19.8686595 -96.84438506
lfemur  -7.87140131 -1.754910946 -24.29069328
ltibia  -3.641206786e-005 2.004581745e-007 25.08303452
lfoot  -5.693161143e-007 -15.01181126 -5.42739296
ltoes  -5.298979543 -19.31302686 -105.6655569
84
root  -23.08466603 38.88622194 36.7228891 0.2320100516 3.142320633 1.198129892
lowerback  8.017769814 0.1111719906 -5.695859909
upperback  1.448879957 -0.3252710104 0.2684330046
thorax  -2.959350109 -0.1082070023 3.516979933
lowerneck  -15.2510004 3.783159971 -4.336410046
upperneck  26.52739906 5.781640053 2.953579664
head  10.83959961 2.570739985 2.584140301
lclavicle  0 -5.34481991e-014 2.981770104e-014
lhumerus  -17.47859955 3.319060087 84.70749664
lradius  0.003583191894 6.643666666e-007 31.0904007
lwrist  -1.645157397e-007 -3.533851896e-007 -1.912350178
lhand  -5.505032044e-031 -15.8135004 33.60620117
lfingers  90 7.125020027 -90
lthumb  93.41605384 18.01962653 79.07819387
rclavicle  0 -5.34481991e-014 2.981770104e-014
rhumerus  -39.31850052 -21.3377018 -71.3470993
rradius  -1.296506525e-006 2.359789448e-007 37.08890152
rwrist  -2.281664457e-008 -8.593936229e-009 16.71850014
rhand  -1.345748685e-031 10.2737999 9.996669769
rfingers  -90 -7.125020027 -90
rthumb  -72.52445805 -22.91766803 -51.04506765
rfemur  -31.43950653 -3.146219254 18.87070656
rtibia  9.670418422e-007 1.119611625e-006 49.89421463
rfoot  2.556521167e-006 -13.33220768 -0.02796815522
rtoes  2.336001174 19.8686595 -96.84438506
lfemur  -7.550017834 -1.647780895 -24.46199036
ltibia  -3.641206786e-005 2.004581745e-007 25.00093651
lfoot  -5.693161143e-007 -15.04361916 -5.277192593
ltoes  -5.298979543 -19.31302686 -105.6655569
85
root  -23.07288853 38.87244397 36.92355419 0.1492880434 3.079980135 1.291799903
lowerback  8.153770447 0.04341569915 -5.714710236
upperback  1.37153995 -0.4277989864 0.2792139947
thorax  -3.104959965 -0.1529839933 3.551150084
lowerneck  -14.79870033 3.915309906 -4.115670204
upperneck  26.50309944 5.931279659 2.792990208
head  10.7489996 2.643300056 2.493489742
lclavicle  0 -5.34481991e-014 2.981770104e-014
lhumerus  -17.48189926 2.906510115 84.70580292
lradius  0.003583191894 6.643666666e-007 31.39719963
lwrist  -1.645157397e-007 -3.533851896e-007 -1.651009679
lhand  -5.505032044e-031 -15.8135004 33.60620117
lfingers  90 7.125020027 -90
lthumb  93.41605384 18.01962653 79.07819387
rclavicle  0 -5.34481991e-014 2.981770104e-014
rhumerus  -39.55599976 -21.06170082 -71.3687973
rradius  -1.296506525e-006 2.359789448e-007 37.12400055
rwrist  -2.281664457e-008 -8.593936229e-009 16.43700027
rhand  -1.345748685e-031 10.2737999 9.996669769
rfingers  -90 -7.125020027 -90
rthumb  -72.52445805 -22.91766803 -51.04506765
rfemur  -31.76030922 -3.086159229 18.78520584
rtibia  9.670418422e-007 1.119611625e-006 49.09041214
rfoot  2.556521167e-006 -13.21790123 -0.02803665586
rtoes  2.336001174 19.8686595 -96.84438506
lfemur  -7.079596043 -1.51234138 -24.6015892
ltibia  -3.641206786e-005 2.004581745e-007 24.91574478
lfoot  -5.693161143e-007 -14.99831581 -5.281592846
ltoes  -5.298979543 -19.31302686 -105.6655569
